<?xml version="1.0" encoding="UTF-8" standalone="no"?>
<!-- Created with Inkscape (http://www.inkscape.org/) -->

<svg
   width="65mm"
   height="65mm"
   viewBox="0 0 245.66943 245.66942"
   version="1.1"
   id="svg1"
   xml:space="preserve"
   inkscape:version="1.3.2 (091e20e, 2023-11-25, custom)"
   sodipodi:docname="Marisol Zariquiey - Pastelería Fina.svg"
   xmlns:inkscape="http://www.inkscape.org/namespaces/inkscape"
   xmlns:sodipodi="http://sodipodi.sourceforge.net/DTD/sodipodi-0.dtd"
   xmlns="http://www.w3.org/2000/svg"
   xmlns:svg="http://www.w3.org/2000/svg"><sodipodi:namedview
     id="namedview1"
     pagecolor="#ffffff"
     bordercolor="#999999"
     borderopacity="1"
     inkscape:showpageshadow="0"
     inkscape:pageopacity="0"
     inkscape:pagecheckerboard="0"
     inkscape:deskcolor="#d1d1d1"
     inkscape:document-units="px"
     inkscape:zoom="1"
     inkscape:cx="371"
     inkscape:cy="291.5"
     inkscape:window-width="1920"
     inkscape:window-height="1009"
     inkscape:window-x="-8"
     inkscape:window-y="-8"
     inkscape:window-maximized="1"
     inkscape:current-layer="layer1" /><defs
     id="defs1" /><g
     inkscape:label="Capa 1"
     inkscape:groupmode="layer"
     id="layer1"><path
       style="display:inline;fill:#d43247;fill-opacity:1;stroke:none;stroke-width:0.5728;stroke-opacity:1"
       d="m 75.29909,191.27509 c 0.10958,-0.17731 -0.15852,-0.30605 -0.63739,-0.30605 -0.45459,0 -0.74657,-0.0799 -0.64884,-0.17769 0.0977,-0.0977 6.84098,-0.57437 14.985,-1.0592 46.23809,-2.75268 80.81929,-5.01366 97.13637,-6.35095 8.15181,-0.6681 19.47034,-1.77458 19.61311,-1.91735 0.0497,-0.0498 -1.92075,-0.32094 -4.37887,-0.60268 -9.47674,-1.08616 -23.18729,-2.03714 -35.70279,-2.47637 -7.17157,-0.2517 -19.04333,-0.66528 -26.38169,-0.91908 -73.97282,-2.55837 -113.15054,-5.79451 -121.55095,-10.04031 -4.58398,-2.31687 -5.13486,-5.98255 -1.27054,-8.45451 6.77028,-4.33091 37.21658,-9.99244 96.13657,-17.87675 29.38957,-3.93273 82.70774,-10.29155 105.85941,-12.625 l 3.66827,-0.36971 0.19801,-5.91221 c 0.1089,-3.25172 0.198,-8.56037 0.198,-11.79701 0,-5.46308 -0.038,-5.8734 -0.53066,-5.7256 -0.29187,0.0876 -3.80564,0.77494 -7.80837,1.52752 -22.17437,4.1691 -41.34137,6.37706 -64.91188,7.4776 -8.92041,0.4165 -36.57488,-0.25423 -44.70858,-0.34288 -7.34295,-0.08 -10.45741,-0.0817 -14.55541,-0.007 -2.65067,0.0479 -8.76743,0.432 -25.01713,0.46618 -11.84143,0.0249 -21.70045,0.0713 -21.90892,0.10328 -0.20848,0.0319 -0.37905,0.39614 -0.37905,0.80944 0,0.65783 0.44389,0.9695 3.56305,2.50171 3.3625,1.65176 3.56304,1.80124 3.56304,2.65589 0,1.2543 -0.78954,1.56291 -5.36964,2.09886 -3.98021,0.46575 -5.51484,0.92078 -6.34496,1.88128 -1.76582,2.04318 -0.44441,3.8515 5.04697,6.90676 2.65216,1.47559 5.06313,2.57415 13.7179,6.25054 2.71875,1.15487 -3.12081,1.1566 -10.53751,0.003 -7.26846,-1.13042 -18.48716,-3.64109 -26.83654,-6.00582 l -0.90971,-0.25765 -0.0786,-15.65836 -0.0786,-15.65835 1.29148,-0.33666 c 0.71032,-0.18517 2.17846,-0.59429 3.26253,-0.90918 3.37233,-0.97954 15.10092,-3.84356 19.71046,-4.81312 13.61931,-2.86468 29.97833,-5.16929 43.21138,-6.08752 11.50872,-0.79858 17.82092,-1.453449 19.34426,-0.83776 1.33058,0.53779 -0.12716,0.79766 -1.75647,0.92301 -18.84628,1.45006 -29.02344,2.67578 -42.30167,5.09478 -8.90658,1.62257 -28.36354,6.14073 -29.5186,6.8546 -0.58101,0.35908 17.58659,3.54237 29.06375,5.09248 54.35784,7.34161 110.20785,5.0725 161.32249,-6.5543 7.70043,-1.75158 8.34734,-1.87957 8.53779,-1.68912 0.10592,0.10592 0.26032,8.64074 0.34312,18.96628 l 0.15054,18.77371 -0.87687,0.17292 c -0.48228,0.0951 -1.62739,0.25069 -2.54468,0.34573 -2.62973,0.27249 -35.835,4.06327 -39.87577,4.55229 -2.00137,0.24222 -9.91588,1.19792 -17.58779,2.12379 -60.61752,7.31553 -104.78177,13.54885 -128.11795,18.08252 -8.16554,1.58637 -15.28319,3.29816 -14.96293,3.59858 0.35634,0.33427 6.57249,1.38519 12.53701,2.11955 19.47009,2.39716 51.25627,4.5586 102.64599,6.97983 29.22732,1.37705 37.71506,1.88025 46.39539,2.75062 23.00557,2.30675 27.92953,3.51116 27.83606,6.80874 -0.0382,1.34978 -0.63538,2.03215 -2.46815,2.8206 -4.15409,1.78703 -21.43126,3.11317 -61.75644,4.74019 -6.1709,0.24899 -13.06197,0.52768 -15.31352,0.61933 -8.09339,0.32943 -31.02238,1.0421 -43.363,1.34778 -6.9214,0.17145 -13.92366,0.38229 -15.56056,0.46856 -1.96344,0.10346 -2.91184,0.0527 -2.78705,-0.14922 z m 40.89488,-91.5814 c -7.78927,-1.611 -10.66568,-11.46208 -4.91692,-16.839379 2.04836,-1.91599 3.83958,-2.66069 6.47706,-2.69282 1.16746,-0.0142 2.60883,0.0779 3.20303,0.20466 l 1.08035,0.23051 1.76359,-2.59628 c 3.8763,-5.70653 8.39804,-10.81019 14.51646,-14.59405 2.71357,-1.51947 5.02956,-2.59527 6.45813,-3.0444 1.87216,-0.58859 4.12537,-1.11286 4.60785,0.12044 0.52209,1.33456 -8.30416,4.49071 -13.68297,9.14822 -4.54365,3.93435 -7.10412,7.63782 -8.86179,9.60531 l -2.51015,2.8098 0.89125,0.85388 c 0.49019,0.46963 1.29659,1.66501 1.79199,2.6564 0.76218,1.525249 0.90046,2.156559 0.89904,4.104169 -0.003,2.85726 -0.34584,4.1301 -1.61912,5.99559 -2.10943,3.09052 -6.39413,4.80386 -10.0978,4.03786 z"
       id="path1"
       sodipodi:nodetypes="csssssssssssscsssssssssssssssscscccsssssssssssscsssssssssssssssccscsssscsssssscsscs"
       inkscape:label="logo symbol" /></g></svg>
